Met bekende Nederlands gesproken stemmen,

Edmund en Lucy moeten heel de zomer bij hun vervelende neefje Eustace verblijven, wat ze niet leuk vinden. Terwijl ze op een dag, samen met Eustace in een kamer zitten, komt een schilderij met het schip de 'Dawn Treader' erop tot leven en voor ze het weten bevinden ze zich op het magische schip. Daar ontmoeten ze hun vriend, koning Caspian. Samen gaan ze op zoek naar de zeven edelen. De zoektocht leidt hen naar verschillende mysterieuze eilanden...

------------------ Dutch Friends ------------------

Vrienden van mij vind je hier: http://www.Film-Test.nl 
                    
------ They got my dutchs subs ---- and more ------

General:

Complete name                    : Narnia 3\De Reis van het Drakenschip.avi
Format                           : AVI
Format/Info                      : Audio Video Interleave
File size                        : 1.57 GiB
Duration                         : 1h 48mn
Overall bit rate                 : 2 074 Kbps

Video:

Format                           : MPEG-4 Visual
Format profile                   : Simple@L3
Format settings, BVOP            : No
Format settings, QPel            : No
Format settings, GMC             : No warppoints
Format settings, Matrix          : Default (H.263)
Codec ID                         : XVID
Codec ID/Hint                    : XviD
Duration                         : 1h 48mn
Bit rate                         : 1 680 Kbps
Width                            : 720 pixels
Height                           : 304 pixels
Display aspect ratio             : 2.35:1
Frame rate                       : 25.000 fps
Color space                      : YUV
Chroma subsampling               : 4:2:0
Bit depth                        : 8 bits
Scan type                        : Progressive
Bits/(Pixel*Frame)               : 0.307
Stream size                      : 1.27 GiB (81%)
Writing library                  : XviD 1.1.2 (UTC 2006-11-01)

Audio:

Format                           : AC-3
Format/Info                      : Audio Coding 3
Mode extension                   : CM (complete main)
Codec ID                         : 2000
Duration                         : 1h 48mn
Bit rate mode                    : Constant
Bit rate                         : 384 Kbps
Channel(s)                       : 6 channels
Channel positions                : Front: L C R, Side: L R, LFE
Sampling rate                    : 48.0 KHz
Bit depth                        : 16 bits
Stream size                      : 297 MiB (19%)
Alignment                        : Aligned on interleaves
Interleave, duration             : 32 ms (0.80 video frame)
Interleave, preload duration     : 160 ms


